<?xml version="1.0" encoding="utf-8"?>
<!-- Generator: Adobe Illustrator 25.0.0, SVG Export Plug-In . SVG Version: 6.00 Build 0)  -->
<svg version="1.1" id="Calque_1" xmlns="http://www.w3.org/2000/svg" xmlns:xlink="http://www.w3.org/1999/xlink" x="0px" y="0px"
	 viewBox="0 0 841.9 595.3" style="enable-background:new 0 0 841.9 595.3;" xml:space="preserve">
<style type="text/css">
	.st0{fill:none;stroke:#F9F9FA;stroke-miterlimit:10;}
	.st1{fill:#F9F9FA;}
	.st2{fill:none;stroke:#F9F9FA;stroke-width:0.5;stroke-miterlimit:10;}
	.st3{fill:#F9F9F9;}
	.st4{fill:#F1F1F1;}
	.st5{fill:#1C1C1C;}
	.st6{font-family:'Arial-Black';}
	.st7{font-size:24.2121px;}
	.st8{font-size:21.1352px;}
	.st9{font-size:23.9909px;}
	.st10{font-size:21.649px;}
	.st11{font-size:21.7617px;}
</style>
<path class="st0" d="M2.3,0L0,595.3h841.9V0H2.3z M749.4,476.7l-192.7-0.9L449.9,369.1l-43.1,42.6l61.6,65l-382.3-2.9l-0.2-23.5
	L55,450.7l-1.1-107l32.8-0.3L86,275.1L85,178l141.8-81.1L382.8,21l19.3,57.4l98.2-27.8L514,152.9l36.8-5.1l28.6-10.3l87.3-36.3
	l40.7-14.4l-4.1-11.3l46.1-15.2V476.7z"/>
<polygon class="st0" points="449.9,369.1 435.2,311.7 460.4,288.8 584.9,287.5 585.5,347.7 669.4,432.6 641.9,432.9 569.6,360.6 
	566.3,305.8 470.7,306.1 458,316.9 466.4,345.5 589.4,476 556.7,475.9 "/>
<polygon class="st0" points="235.2,266.9 244.8,153 258.7,81.5 361.2,31.5 382.7,21 402.1,78.4 410.8,146.6 452.2,196.5 
	363.7,188.6 317.7,207.1 340.1,309.3 326.1,315.5 281.7,221.5 285.5,203.4 286,184.7 270.3,160.1 250,269.4 "/>
<rect x="86" y="274.8" transform="matrix(0.9999 -1.002812e-02 1.002812e-02 0.9999 -2.7727 1.1856)" class="st1" width="61.6" height="4.5"/>
<rect x="86.5" y="325.1" transform="matrix(0.9999 -1.002816e-02 1.002816e-02 0.9999 -3.2802 1.1933)" class="st1" width="61.6" height="5.2"/>
<rect x="82.4" y="418.4" transform="matrix(0.9999 -1.002810e-02 1.002810e-02 0.9999 -4.4735 0.8686)" class="st1" width="4" height="56.2"/>
<rect x="116.9" y="443.7" transform="matrix(0.9999 -1.002803e-02 1.002803e-02 0.9999 -4.4605 1.3715)" class="st1" width="35.3" height="3.6"/>
<rect x="116.7" y="418" transform="matrix(0.9999 -1.002807e-02 1.002807e-02 0.9999 -4.3336 1.2174)" class="st1" width="5" height="29.4"/>
<rect x="147" y="445.1" transform="matrix(0.9999 -1.002807e-02 1.002807e-02 0.9999 -4.6037 1.5222)" class="st1" width="5" height="29.4"/>
<rect x="704.8" y="354.3" transform="matrix(0.9999 -1.002802e-02 1.002802e-02 0.9999 -3.5483 7.3093)" class="st1" width="44.6" height="6.3"/>
<rect x="705.5" y="423" transform="matrix(0.9999 -1.002804e-02 1.002804e-02 0.9999 -4.2397 7.3167)" class="st1" width="44" height="7"/>
<polygon class="st0" points="402.1,78.4 410.8,146.6 442.1,184.4 513.9,153 500.2,50.6 "/>
<line class="st2" x1="319.1" y1="213.8" x2="377.8" y2="189.9"/>
<line class="st2" x1="321.9" y1="226.3" x2="401.5" y2="191.9"/>
<line class="st2" x1="323.7" y1="234.5" x2="419.9" y2="193.6"/>
<line class="st2" x1="326.2" y1="246" x2="438.9" y2="195.2"/>
<line class="st2" x1="328.6" y1="256.9" x2="452.2" y2="196.5"/>
<circle class="st3" cx="699" cy="308.3" r="23.1"/>
<circle class="st3" cx="703.2" cy="241.7" r="23.1"/>
<circle class="st3" cx="385.5" cy="388.9" r="23.1"/>
<circle class="st3" cx="484.6" cy="207.1" r="17.1"/>
<ellipse transform="matrix(0.9999 -1.002792e-02 1.002792e-02 0.9999 -1.0445 4.5938)" class="st3" cx="457.6" cy="106.5" rx="32.2" ry="17.1"/>
<rect x="196.1" y="105.9" transform="matrix(0.861 -0.5087 0.5087 0.861 -30.2832 129.1896)" class="st3" width="50.2" height="28.2"/>
<rect x="150" y="133.2" transform="matrix(0.861 -0.5087 0.5087 0.861 -50.5726 109.5297)" class="st3" width="50.2" height="28.2"/>
<rect x="102.8" y="161" transform="matrix(0.861 -0.5087 0.5087 0.861 -71.2759 89.4155)" class="st3" width="50.2" height="28.2"/>
<rect x="91.5" y="211.7" transform="matrix(0.9999 -1.002807e-02 1.002807e-02 0.9999 -2.3691 1.0714)" class="st3" width="28.2" height="50.2"/>
<ellipse transform="matrix(0.5603 -0.8283 0.8283 0.5603 -288.6682 245.2797)" class="st3" cx="86.7" cy="394.5" rx="13.4" ry="25.3"/>
<rect x="210.5" y="439.1" transform="matrix(0.9999 -1.002807e-02 1.002807e-02 0.9999 -4.5335 2.3848)" class="st3" width="50.2" height="28.2"/>
<rect x="308" y="438.2" transform="matrix(0.9999 -1.002807e-02 1.002807e-02 0.9999 -4.5188 3.3634)" class="st3" width="50.2" height="28.2"/>
<rect x="190.7" y="219.3" transform="matrix(0.9999 -1.002807e-02 1.002807e-02 0.9999 -2.278 2.0124)" class="st4" width="17.7" height="17.7"/>
<circle class="st3" cx="414.1" cy="338.1" r="17.1"/>
<circle class="st3" cx="428.5" cy="234.7" r="17.1"/>
<circle class="st3" cx="369" cy="267" r="17.1"/>
<ellipse transform="matrix(0.9999 -1.002806e-02 1.002806e-02 0.9999 -4.0086 1.6928)" class="st3" cx="166.8" cy="400.6" rx="17.1" ry="17.1"/>
<circle class="st3" cx="703.6" cy="182.4" r="23.1"/>
<circle class="st3" cx="573.8" cy="183.1" r="23.1"/>
<ellipse transform="matrix(0.9999 -1.002811e-02 1.002811e-02 0.9999 -2.58 2.0566)" class="st3" cx="203.8" cy="258.3" rx="17.1" ry="17.1"/>
<ellipse transform="matrix(0.9999 -1.002800e-02 1.002800e-02 0.9999 -4.0162 2.4154)" class="st3" cx="238.9" cy="401.7" rx="17.1" ry="17.1"/>
<circle class="st3" cx="303.8" cy="399.2" r="17.1"/>
<ellipse transform="matrix(0.9999 -1.002799e-02 1.002799e-02 0.9999 -3.2667 1.7465)" class="st3" cx="172.5" cy="326.6" rx="17.1" ry="17.1"/>
<circle class="st3" cx="244.6" cy="327.7" r="17.1"/>
<circle class="st3" cx="309.5" cy="325.2" r="17.1"/>
<ellipse transform="matrix(0.9998 -2.170976e-02 2.170976e-02 0.9998 -7.7231 2.6207)" class="st3" cx="116.8" cy="357" rx="25.3" ry="13.4"/>
<text transform="matrix(0.9999 -1.002807e-02 1.002807e-02 0.9999 695.0688 249.9169)" class="st5 st6 st7">2</text>
<text transform="matrix(0.9999 -1.002807e-02 1.002807e-02 0.9999 691.1653 317.7221)" class="st5 st6 st7">1</text>
<text transform="matrix(0.9999 -1.002807e-02 1.002807e-02 0.9999 695.0692 191.9211)" class="st5 st6 st7">3</text>
<text transform="matrix(0.9999 -1.002807e-02 1.002807e-02 0.9999 565.16 191.9212)" class="st5 st6 st7">4</text>
<text transform="matrix(0.9999 -1.002807e-02 1.002807e-02 0.9999 477.997 215.5059)" class="st5 st6 st7">5</text>
<text transform="matrix(0.9999 -1.002807e-02 1.002807e-02 0.9999 420.9502 243.3085)" class="st5 st6 st7">6</text>
<text transform="matrix(0.9999 -1.002807e-02 1.002807e-02 0.9999 361.7136 275.362)" class="st5 st6 st7">7</text>
<text transform="matrix(0.9999 -1.002807e-02 1.002807e-02 0.9999 451.3007 113.4794)" class="st5 st6 st7">9</text>
<text transform="matrix(0.9999 -1.002807e-02 1.002807e-02 0.9999 406.7636 346.6255)" class="st5 st6 st7">8</text>
<text transform="matrix(0.9999 -1.002807e-02 1.002807e-02 0.9999 368.9775 399.1967)" class="st5 st6 st7">20</text>
<text transform="matrix(0.9999 -1.002807e-02 1.002807e-02 0.9999 289.9447 407.4351)" class="st5 st6 st7">21</text>
<text transform="matrix(0.9999 -1.002807e-02 1.002807e-02 0.9999 223.432 408.6381)" class="st5 st6 st7">22</text>
<text transform="matrix(0.9999 -1.002807e-02 1.002807e-02 0.9999 150.7305 408.4348)" class="st5 st6 st7">23</text>
<text transform="matrix(0.9999 -1.002807e-02 1.002807e-02 0.9999 293.7317 333.6654)" class="st5 st6 st7">28</text>
<text transform="matrix(0.9999 -1.002807e-02 1.002807e-02 0.9999 228.6613 336.4319)" class="st5 st6 st7">27</text>
<text transform="matrix(0.9999 -1.002807e-02 1.002807e-02 0.9999 156.1095 333.5709)" class="st5 st6 st7">24</text>
<text transform="matrix(0.9999 -1.002807e-02 1.002807e-02 0.9999 317.0944 461.1514)" class="st5 st6 st7">19</text>
<text transform="matrix(0.9999 -1.002807e-02 1.002807e-02 0.9999 218.3208 461.1523)" class="st5 st6 st7">18</text>
<text transform="matrix(0.9999 -1.002807e-02 1.002807e-02 0.9999 100.486 366.1142)" class="st5 st6 st7">16</text>
<text transform="matrix(0.9999 -1.002807e-02 1.002807e-02 0.9999 69.2137 404.1689)" class="st5 st6 st7">17</text>
<text transform="matrix(0.9999 -1.002807e-02 1.002807e-02 0.9999 188.395 266.9812)" class="st5 st6 st7">26</text>
<text transform="matrix(0.9999 -1.002807e-02 1.002807e-02 0.9999 88.4224 244.4573)" class="st5 st6 st7">15</text>
<text transform="matrix(0.9785 -9.812465e-03 1.002807e-02 0.9999 114.1163 182.7714)" class="st5 st6 st8">14</text>
<text transform="matrix(0.9236 -9.261924e-03 1.002807e-02 0.9999 161.3731 155.1148)" class="st5 st6 st9">13</text>
<text transform="matrix(1.0348 -1.037805e-02 1.002807e-02 0.9999 204.998 126.5984)" class="st5 st6 st10">12</text>
<text transform="matrix(0.9999 -1.002807e-02 1.002807e-02 0.9999 291.6298 242.7736)" class="st3 st6 st7">10</text>
<text transform="matrix(0.8931 -8.956068e-03 1.002807e-02 0.9999 242.4783 202.8905)" class="st3 st6 st11">11</text>
</svg>
